<svg width="24" height="24" viewBox="0 0 24 24" fill="none" xmlns="http://www.w3.org/2000/svg">
<path d="M18.3295 13.9464L11.2206 18.2975C10.0646 19.0071 8.57364 18.7211 7.74175 17.6374L4.48439 13.3688L4.38175 13.4293C2.94484 14.2324 2.5559 16.1522 3.56066 17.4669L7.74175 22.9512C8.56824 24.0348 10.0592 24.3209 11.2206 23.6113L18.7022 19.0346C20.2256 18.105 20.4417 15.9487 19.1398 14.722L18.3241 13.9519L18.3295 13.9464Z" fill="#424548"/>
<path d="M19.1383 5.39259L14.1955 0.72241C13.3528 -0.0697058 12.105 -0.229229 11.1002 0.337354L4.38566 4.0999C2.94874 4.90302 2.55981 6.8228 3.56456 8.13749L7.74565 13.6218C8.57214 14.7055 10.0631 14.9915 11.2245 14.2819L18.7061 9.70522C20.2295 8.77559 20.4456 6.61927 19.1437 5.39259H19.1383Z" fill="#424548"/>
</svg>
