<svg width="1440" height="989" viewBox="0 0 1440 989" fill="none" xmlns="http://www.w3.org/2000/svg">
<g clip-path="url(#clip0_2114_102115)">
<rect width="1440" height="989" fill="url(#paint0_linear_2114_102115)"/>
<g filter="url(#filter0_f_2114_102115)">
<path d="M986.765 -131C1033.64 44.2308 1162.53 181.194 1327.43 231C1162.53 280.806 1033.64 417.769 986.765 593C939.894 417.769 811.002 280.806 646.098 231C811.002 181.194 939.894 44.2308 986.765 -131Z" fill="url(#paint1_linear_2114_102115)"/>
<path d="M1204.15 -111C1251.03 64.2308 1379.92 201.194 1544.82 251C1379.92 300.806 1251.03 437.769 1204.15 613C1157.28 437.769 1028.39 300.806 863.486 251C1028.39 201.194 1157.28 64.2308 1204.15 -111Z" fill="url(#paint2_linear_2114_102115)"/>
<path d="M285.668 -285C332.539 -109.769 461.431 27.1938 626.336 77C461.431 126.806 332.539 263.769 285.668 439C238.797 263.769 109.905 126.806 -55 77C109.905 27.1938 238.797 -109.769 285.668 -285Z" fill="url(#paint3_linear_2114_102115)"/>
<path d="M425.887 104C472.758 279.231 601.65 416.194 766.554 466C601.65 515.806 472.758 652.769 425.887 828C379.015 652.769 250.123 515.806 85.2188 466C250.123 416.194 379.015 279.231 425.887 104Z" fill="url(#paint4_linear_2114_102115)"/>
</g>
</g>
<defs>
<filter id="filter0_f_2114_102115" x="-215" y="-445" width="1919.82" height="1433" filterUnits="userSpaceOnUse" color-interpolation-filters="sRGB">
<feFlood flood-opacity="0" result="BackgroundImageFix"/>
<feBlend mode="normal" in="SourceGraphic" in2="BackgroundImageFix" result="shape"/>
<feGaussianBlur stdDeviation="80" result="effect1_foregroundBlur_2114_102115"/>
</filter>
<linearGradient id="paint0_linear_2114_102115" x1="720" y1="2.94745e-05" x2="1096.54" y2="952.415" gradientUnits="userSpaceOnUse">
<stop stop-color="#F3F5F5"/>
<stop offset="1" stop-color="white"/>
</linearGradient>
<linearGradient id="paint1_linear_2114_102115" x1="986.766" y1="-131" x2="986.766" y2="593" gradientUnits="userSpaceOnUse">
<stop stop-color="#C0FC21"/>
<stop offset="1" stop-color="#F7FFE5"/>
</linearGradient>
<linearGradient id="paint2_linear_2114_102115" x1="1277.56" y1="233.5" x2="1195.11" y2="611.024" gradientUnits="userSpaceOnUse">
<stop stop-color="#FDE7E7"/>
<stop offset="1" stop-color="#45BA7B"/>
</linearGradient>
<linearGradient id="paint3_linear_2114_102115" x1="359.071" y1="59.5" x2="276.619" y2="437.024" gradientUnits="userSpaceOnUse">
<stop stop-color="#FDE7E7"/>
<stop offset="1" stop-color="#45BA7B"/>
</linearGradient>
<linearGradient id="paint4_linear_2114_102115" x1="376.951" y1="226" x2="432.154" y2="827.425" gradientUnits="userSpaceOnUse">
<stop stop-color="#D2D5EF"/>
<stop offset="1" stop-color="#FABDBD"/>
</linearGradient>
<clipPath id="clip0_2114_102115">
<rect width="1440" height="989" fill="white"/>
</clipPath>
</defs>
</svg>
