<svg width="118" height="25" viewBox="0 0 118 25" fill="none" xmlns="http://www.w3.org/2000/svg">
<path d="M21.8333 6.07992L13.2795 1.03629C13.1154 0.941917 12.9 1.07823 12.9205 1.26697C13.0744 2.51477 13.3513 3.98277 14.1205 4.99989C14.6744 5.74437 15.5769 6.00652 16.4282 6.21623C17.4231 6.44692 18.4795 6.54129 19.4846 6.55177C19.6795 6.55177 19.8128 6.55177 20.0077 6.54129C20.1205 6.54129 20.2846 6.58323 20.3051 6.73003C20.3256 6.90829 20.1615 7.00266 20.059 7.0446C17.0128 8.17706 14.9513 8.77474 13.9154 11.6164C13.3205 13.2417 13.2282 15.0137 13.0846 16.7334C13.0436 17.1738 13.0128 17.6037 12.9821 18.0441C12.9615 18.2958 12.7564 18.495 12.5103 18.495C12.2641 18.495 12.0487 18.2958 12.0385 18.0441C12.0077 17.6037 11.9769 17.1633 11.9359 16.7334C11.7923 15.0033 11.6897 13.2417 11.1051 11.6164C10.0692 8.77474 8.00769 8.17706 4.96154 7.0446C4.84872 7.00266 4.68462 6.91877 4.71538 6.73003C4.7359 6.58323 4.9 6.5308 5.01282 6.54129C5.19744 6.55177 5.34103 6.55177 5.5359 6.55177C6.54103 6.54129 7.58718 6.4574 8.59231 6.21623C9.44359 6.017 10.3462 5.75486 10.9 4.99989C11.659 3.97229 11.9462 2.51477 12.1 1.26697C12.1205 1.06775 11.9154 0.931431 11.741 1.03629L3.17692 6.07992C2.75641 6.33157 2.5 6.78246 2.5 7.28577V17.5093C2.5 18.0022 2.75641 18.4635 3.17692 18.7152L11.8333 23.8322C11.9051 23.8742 11.9872 23.9056 12.059 23.9371C12.141 23.9685 12.2231 23.979 12.3051 24C12.3462 24 12.6436 24 12.6949 24C12.7769 23.9895 12.859 23.9685 12.941 23.9371C13.0231 23.9056 13.0949 23.8742 13.1667 23.8322L21.8231 18.7152C22.2436 18.4635 22.5 18.0127 22.5 17.5093V7.28577C22.5 6.79294 22.2436 6.33157 21.8231 6.07992H21.8333Z" fill="#F8FAFB"/>
<path fill-rule="evenodd" clip-rule="evenodd" d="M38.001 12.4096C38.001 12.4096 37.9558 12.353 38.001 12.3304C39.2346 11.8104 39.8796 10.8157 39.8796 9.43653C39.8796 7.31131 38.216 6 35.5 6H30.3056C30.1358 6 30 6.13565 30 6.30522V18.4687C30 18.6383 30.1358 18.7739 30.3056 18.7739H35.5905C38.4424 18.7739 40.0833 17.4965 40.0833 15.3148C40.0833 13.8678 39.3817 12.8731 38.001 12.4209V12.4096ZM32.4105 8.13652C32.4105 8.04609 32.4784 7.97826 32.5689 7.97826H35.2737C36.6317 7.97826 37.3899 8.56609 37.3899 9.67392C37.3899 10.7817 36.6543 11.46 35.3302 11.46H32.5689C32.4784 11.46 32.4105 11.3922 32.4105 11.3017V8.13652ZM35.4887 16.7844H32.5689C32.4784 16.7844 32.4105 16.7165 32.4105 16.6261V13.4948C32.4105 13.4044 32.4784 13.3365 32.5689 13.3365H35.4887C36.8241 13.3365 37.6049 13.947 37.6049 15.0322C37.6049 16.1852 36.8467 16.7957 35.4887 16.7957V16.7844ZM108.641 6H106.389C106.321 6 106.264 6.04522 106.242 6.10174L101.387 18.5365C101.341 18.6383 101.421 18.7513 101.534 18.7513H103.695C103.763 18.7513 103.82 18.7061 103.843 18.6496L104.872 15.9139C104.895 15.8461 104.952 15.8122 105.019 15.8122H109.954C110.022 15.8122 110.078 15.8574 110.101 15.9139L111.131 18.6496C111.153 18.7174 111.21 18.7513 111.278 18.7513H113.473C113.586 18.7513 113.666 18.6383 113.62 18.5365L108.799 6.10174C108.777 6.04522 108.72 6 108.652 6H108.641ZM109.139 13.9244H105.868C105.755 13.9244 105.676 13.8113 105.721 13.7096L107.204 9.80957C107.339 9.45913 107.453 9.07479 107.509 8.83739C107.541 9.0844 107.666 9.44362 107.775 9.76L107.792 9.80957L109.297 13.7096C109.343 13.8113 109.263 13.9244 109.15 13.9244H109.139ZM47.9033 10.0923C47.5751 10.0244 47.2809 9.99053 46.998 9.99053C46.3982 9.99053 45.7984 10.1488 45.3004 10.4766C45.108 10.601 44.927 10.7479 44.7685 10.9175C44.7168 10.9691 44.6722 11.0278 44.6272 11.0871L44.6272 11.0872C44.5735 11.1577 44.5193 11.2291 44.4517 11.2905C44.3951 11.3357 44.3272 11.381 44.2593 11.381C44.0556 11.381 44.0103 11.1323 43.9877 10.974C43.965 10.7931 43.9311 10.4427 43.9311 10.3975C43.9311 10.3071 43.8632 10.1488 43.6368 10.1488H42.3241C42.2336 10.1488 42.1656 10.2053 42.1656 10.3636V18.661C42.1656 18.661 42.2109 18.7514 42.2562 18.7514H44.3838C44.3838 18.7514 44.4743 18.7062 44.4743 18.661V14.5575C44.4743 12.8844 45.5154 12.0592 47.179 12.0592H47.8807C48.0165 12.0592 48.0278 11.9462 48.0278 11.9462V10.2053C48.0278 10.1036 47.9599 10.0697 47.9146 10.0584L47.9033 10.0923ZM115.838 6H117.751C117.889 6 118 6.11134 118 6.2487V18.5139C118 18.6513 117.889 18.7626 117.751 18.7626H115.838C115.701 18.7626 115.59 18.6513 115.59 18.5139V6.2487C115.59 6.11134 115.701 6 115.838 6ZM48.8539 14.4331C48.8539 11.7426 50.9475 9.88873 53.8333 9.88873C56.7191 9.88873 58.8127 11.7539 58.8127 14.4331C58.8127 17.1122 56.7191 18.9661 53.8333 18.9661C50.9475 18.9661 48.8539 17.1235 48.8539 14.4331ZM51.1512 14.4331C51.1512 16.0044 52.249 17.067 53.8333 17.067C55.4177 17.067 56.5154 16.0044 56.5154 14.4331C56.5154 12.8618 55.4177 11.7992 53.8333 11.7992C52.249 11.7992 51.1512 12.8618 51.1512 14.4331ZM73.6944 10.1373H71.6573C71.5781 10.1373 71.5102 10.1825 71.4876 10.2617L70.3446 13.8678L70.3093 13.9861C70.2134 14.3095 70.0916 14.7199 69.8806 15.2017C69.824 15.3825 69.7787 15.4391 69.6429 15.4391C69.5071 15.4391 69.4505 15.2017 69.4505 15.2017C69.2741 14.7495 69.1548 14.3753 69.0716 14.1142L69.0716 14.1142L69.0715 14.1137L69.0712 14.113L69.0712 14.1127C69.0319 13.9894 69.0006 13.8914 68.9752 13.8225L67.8435 10.273C67.8209 10.1938 67.753 10.1486 67.6738 10.1486H65.5915C65.5123 10.1486 65.4444 10.1938 65.4217 10.273L64.2448 13.8565C64.09 14.301 63.96 14.6464 63.8195 15.0197L63.8195 15.0199L63.8193 15.0202L63.8192 15.0205L63.7468 15.213C63.6903 15.3938 63.6563 15.4504 63.5205 15.4504C63.3847 15.4504 63.3394 15.213 63.3394 15.213C63.181 14.7269 63.0452 14.286 62.9207 13.8565L61.789 10.2843C61.7664 10.2051 61.6985 10.1599 61.6193 10.1599H59.6162C59.4917 10.1599 59.4012 10.2843 59.4464 10.4086L62.3322 18.6608C62.3549 18.7399 62.4228 18.7852 62.502 18.7852H64.4824C64.5617 18.7852 64.6296 18.7399 64.6522 18.6608L65.897 15.0886C66.1573 14.3199 66.3158 13.7999 66.4289 13.4043C66.4742 13.2799 66.5195 13.2121 66.6326 13.2121C66.7684 13.2121 66.8137 13.4495 66.8137 13.4495C66.9269 13.8791 67.074 14.3991 67.289 15.0434L68.5339 18.6495C68.5565 18.7286 68.6244 18.7738 68.7036 18.7738H70.5935C70.6728 18.7738 70.7407 18.7286 70.7633 18.6495L73.8528 10.3973C73.8981 10.273 73.8075 10.1486 73.6831 10.1486L73.6944 10.1373ZM78.2099 13.4721L79.8848 13.8339C81.4465 14.1617 82.2387 14.8286 82.2387 16.1513C82.2387 17.8921 80.5864 18.9773 78.3344 18.9773C76.0823 18.9773 74.6337 17.8921 74.5432 16.2869C74.5319 16.1965 74.6111 16.1287 74.6903 16.1287H76.6029C76.6708 16.1287 76.7387 16.1852 76.7387 16.253C76.8292 16.9313 77.4177 17.3495 78.4136 17.3495C79.4887 17.3495 80.0772 16.9539 80.0772 16.3208C80.0772 15.88 79.8282 15.5634 79.0021 15.3939L77.3272 15.0321C75.6523 14.6817 74.8374 13.9469 74.8374 12.5678C74.8374 10.8834 76.3879 9.86603 78.5381 9.86603C80.5638 9.86603 81.9558 10.906 82.0576 12.5C82.0689 12.5904 81.9897 12.6582 81.9105 12.6582H79.9979C79.9187 12.6582 79.8621 12.6017 79.8621 12.5339C79.7829 11.8782 79.2737 11.4599 78.4362 11.4599C77.5309 11.4599 76.999 11.8443 76.999 12.4886C76.999 12.986 77.4177 13.3026 78.2099 13.4721ZM88.2029 9.87739C85.4701 9.88237 83.574 11.7462 83.574 14.4556C83.574 17.1687 85.5205 19 88.2931 19C90.647 19 92.3106 17.9487 92.7746 16.1739C92.7972 16.0722 92.718 15.9817 92.6162 15.9817H90.7828C90.7263 15.9817 90.6697 16.0156 90.647 16.0722C90.3528 16.8296 89.538 17.2478 88.3158 17.2478C86.8559 17.2478 85.9958 16.547 85.7695 15.1452C85.7582 15.0548 85.8261 14.9643 85.9279 14.9643H92.6049V14.9417C92.6049 14.9417 92.752 14.9417 92.7633 14.7722V14.2974C92.7633 11.6107 90.9915 9.88219 88.2029 9.87739ZM88.2029 9.87739L88.1913 9.87738H88.2139L88.2029 9.87739ZM90.3528 13.5965H85.9505C85.86 13.5965 85.8487 13.54 85.8487 13.4948C86.0977 12.2739 86.9125 11.6183 88.2365 11.6183C89.5606 11.6183 90.432 12.353 90.4886 13.4722C90.4773 13.5852 90.3641 13.5852 90.3528 13.5852V13.5965ZM99.7119 9.97918C99.9949 9.97918 100.289 10.0131 100.617 10.0809L100.629 10.047C100.674 10.0583 100.742 10.0922 100.742 10.194V11.9348C100.742 11.9348 100.73 12.0479 100.595 12.0479H99.893C98.2294 12.0479 97.1883 12.8731 97.1883 14.5461V18.6496C97.1883 18.6948 97.0977 18.7401 97.0977 18.7401H94.9702C94.9249 18.7401 94.8796 18.6496 94.8796 18.6496V10.3522C94.8796 10.194 94.9475 10.1374 95.0381 10.1374H96.3508C96.5772 10.1374 96.6451 10.2957 96.6451 10.3861C96.6451 10.4314 96.679 10.7818 96.7017 10.9627C96.7243 11.1209 96.7696 11.3696 96.9733 11.3696C97.0412 11.3696 97.1091 11.3244 97.1656 11.2792C97.2333 11.2178 97.2875 11.1463 97.3411 11.0758C97.3862 11.0165 97.4308 10.9578 97.4825 10.9061C97.641 10.7366 97.822 10.5896 98.0144 10.4653C98.5124 10.1374 99.1121 9.97918 99.7119 9.97918Z" fill="#F8FAFB"/>
</svg>
