<svg width="25" height="25" viewBox="0 0 25 25" fill="none" xmlns="http://www.w3.org/2000/svg">
<path d="M21.8333 6.07992L13.2795 1.03629C13.1154 0.941917 12.9 1.07823 12.9205 1.26697C13.0744 2.51477 13.3513 3.98277 14.1205 4.99989C14.6744 5.74437 15.5769 6.00652 16.4282 6.21623C17.4231 6.44692 18.4795 6.54129 19.4846 6.55177C19.6795 6.55177 19.8128 6.55177 20.0077 6.54129C20.1205 6.54129 20.2846 6.58323 20.3051 6.73003C20.3256 6.90829 20.1615 7.00266 20.059 7.0446C17.0128 8.17706 14.9513 8.77474 13.9154 11.6164C13.3205 13.2417 13.2282 15.0137 13.0846 16.7334C13.0436 17.1738 13.0128 17.6037 12.9821 18.0441C12.9615 18.2958 12.7564 18.495 12.5103 18.495C12.2641 18.495 12.0487 18.2958 12.0385 18.0441C12.0077 17.6037 11.9769 17.1633 11.9359 16.7334C11.7923 15.0033 11.6897 13.2417 11.1051 11.6164C10.0692 8.77474 8.00769 8.17706 4.96154 7.0446C4.84872 7.00266 4.68462 6.91877 4.71538 6.73003C4.7359 6.58323 4.9 6.5308 5.01282 6.54129C5.19744 6.55177 5.34103 6.55177 5.5359 6.55177C6.54103 6.54129 7.58718 6.4574 8.59231 6.21623C9.44359 6.017 10.3462 5.75486 10.9 4.99989C11.659 3.97229 11.9462 2.51477 12.1 1.26697C12.1205 1.06775 11.9154 0.931431 11.741 1.03629L3.17692 6.07992C2.75641 6.33157 2.5 6.78246 2.5 7.28577V17.5093C2.5 18.0022 2.75641 18.4635 3.17692 18.7152L11.8333 23.8322C11.9051 23.8742 11.9872 23.9056 12.059 23.9371C12.141 23.9685 12.2231 23.979 12.3051 24C12.3462 24 12.6436 24 12.6949 24C12.7769 23.9895 12.859 23.9685 12.941 23.9371C13.0231 23.9056 13.0949 23.8742 13.1667 23.8322L21.8231 18.7152C22.2436 18.4635 22.5 18.0127 22.5 17.5093V7.28577C22.5 6.79294 22.2436 6.33157 21.8231 6.07992H21.8333Z" fill="url(#paint0_linear_801_13630)"/>
<defs>
<linearGradient id="paint0_linear_801_13630" x1="7.5" y1="-6.66667" x2="18.5619" y2="29.6168" gradientUnits="userSpaceOnUse">
<stop stop-color="#A8E803"/>
<stop offset="1" stop-color="#C0FC21"/>
</linearGradient>
</defs>
</svg>
