<svg width="2491" height="989" viewBox="0 0 2491 989" fill="none" xmlns="http://www.w3.org/2000/svg">
<g clip-path="url(#clip0_2115_107440)">
<rect width="2491" height="989" fill="url(#paint0_linear_2115_107440)"/>
<g filter="url(#filter0_f_2115_107440)">
<path d="M1529.89 -396.033C1594.4 -154.845 1771.81 33.6713 1998.79 102.225C1771.81 170.778 1594.4 359.294 1529.89 600.483C1465.38 359.294 1287.97 170.778 1060.99 102.225C1287.97 33.6713 1465.38 -154.845 1529.89 -396.033Z" fill="url(#paint1_linear_2115_107440)"/>
<path d="M1829.1 -368.506C1893.62 -127.318 2071.02 61.1986 2298 129.752C2071.02 198.305 1893.62 386.822 1829.1 628.01C1764.59 386.822 1587.18 198.305 1360.21 129.752C1587.18 61.1986 1764.59 -127.318 1829.1 -368.506Z" fill="url(#paint2_linear_2115_107440)"/>
<path d="M564.896 -608C629.41 -366.812 806.817 -178.295 1033.79 -109.742C806.817 -41.1887 629.41 147.328 564.896 388.516C500.383 147.328 322.975 -41.1887 96 -109.742C322.975 -178.295 500.383 -366.812 564.896 -608Z" fill="url(#paint3_linear_2115_107440)"/>
<path d="M757.892 -72.5801C822.406 168.608 999.813 357.124 1226.79 425.678C999.813 494.231 822.406 682.747 757.892 923.936C693.379 682.747 515.971 494.231 288.996 425.678C515.971 357.124 693.379 168.608 757.892 -72.5801Z" fill="url(#paint4_linear_2115_107440)"/>
</g>
</g>
<defs>
<filter id="filter0_f_2115_107440" x="-144" y="-848" width="2682" height="2011.94" filterUnits="userSpaceOnUse" color-interpolation-filters="sRGB">
<feFlood flood-opacity="0" result="BackgroundImageFix"/>
<feBlend mode="normal" in="SourceGraphic" in2="BackgroundImageFix" result="shape"/>
<feGaussianBlur stdDeviation="120" result="effect1_foregroundBlur_2115_107440"/>
</filter>
<linearGradient id="paint0_linear_2115_107440" x1="1245.5" y1="2.94745e-05" x2="1484.7" y2="1046.61" gradientUnits="userSpaceOnUse">
<stop stop-color="#F3F5F5"/>
<stop offset="1" stop-color="white"/>
</linearGradient>
<linearGradient id="paint1_linear_2115_107440" x1="1529.89" y1="-396.033" x2="1529.89" y2="600.483" gradientUnits="userSpaceOnUse">
<stop stop-color="#C0FC21"/>
<stop offset="1" stop-color="#F7FFE5"/>
</linearGradient>
<linearGradient id="paint2_linear_2115_107440" x1="1930.14" y1="105.665" x2="1816.65" y2="625.29" gradientUnits="userSpaceOnUse">
<stop stop-color="#FDE7E7"/>
<stop offset="1" stop-color="#45BA7B"/>
</linearGradient>
<linearGradient id="paint3_linear_2115_107440" x1="665.929" y1="-133.829" x2="552.441" y2="385.796" gradientUnits="userSpaceOnUse">
<stop stop-color="#FDE7E7"/>
<stop offset="1" stop-color="#45BA7B"/>
</linearGradient>
<linearGradient id="paint4_linear_2115_107440" x1="690.537" y1="95.3411" x2="766.519" y2="923.144" gradientUnits="userSpaceOnUse">
<stop stop-color="#D2D5EF"/>
<stop offset="1" stop-color="#FABDBD"/>
</linearGradient>
<clipPath id="clip0_2115_107440">
<rect width="2491" height="989" fill="white"/>
</clipPath>
</defs>
</svg>
