<svg width="3411" height="989" viewBox="0 0 3411 989" fill="none" xmlns="http://www.w3.org/2000/svg">
<g clip-path="url(#clip0_2115_107440)">
<g filter="url(#filter0_f_2115_107440)">
<path d="M2037.89 -396.033C2102.4 -154.845 2279.81 33.6713 2506.79 102.225C2279.81 170.778 2102.4 359.294 2037.89 600.483C1973.38 359.294 1795.97 170.778 1568.99 102.225C1795.97 33.6713 1973.38 -154.845 2037.89 -396.033Z" fill="url(#paint0_linear_2115_107440)"/>
<path d="M2337.11 -368.506C2401.62 -127.318 2579.03 61.1986 2806 129.752C2579.03 198.305 2401.62 386.822 2337.11 628.01C2272.59 386.822 2095.18 198.305 1868.21 129.752C2095.18 61.1986 2272.59 -127.318 2337.11 -368.506Z" fill="url(#paint1_linear_2115_107440)"/>
</g>
</g>
<defs>
<filter id="filter0_f_2115_107440" x="1328.99" y="-636.033" width="1717.01" height="1504.04" filterUnits="userSpaceOnUse" color-interpolation-filters="sRGB">
<feFlood flood-opacity="0" result="BackgroundImageFix"/>
<feBlend mode="normal" in="SourceGraphic" in2="BackgroundImageFix" result="shape"/>
<feGaussianBlur stdDeviation="120" result="effect1_foregroundBlur_2115_107440"/>
</filter>
<linearGradient id="paint0_linear_2115_107440" x1="2037.89" y1="-396.033" x2="2037.89" y2="600.483" gradientUnits="userSpaceOnUse">
<stop stop-color="#C0FC21"/>
<stop offset="1" stop-color="#F7FFE5"/>
</linearGradient>
<linearGradient id="paint1_linear_2115_107440" x1="2438.14" y1="105.665" x2="2324.65" y2="625.29" gradientUnits="userSpaceOnUse">
<stop stop-color="#FDE7E7"/>
<stop offset="1" stop-color="#45BA7B"/>
</linearGradient>
<clipPath id="clip0_2115_107440">
<rect width="3411" height="989" fill="white"/>
</clipPath>
</defs>
</svg>
